<mxfile host="Electron" modified="2024-12-20T16:04:45.057Z" agent="Mozilla/5.0 (X11; Linux x86_64) AppleWebKit/537.36 (KHTML, like Gecko) draw.io/24.6.1 Chrome/124.0.6367.207 Electron/30.0.6 Safari/537.36" etag="UvUqNWQ2VXBSIMu0ZGmr" version="24.6.1" type="device">
  <diagram name="Page-1" id="KA8l6ZmTzQ1BaEPAbzqs">
    <mxGraphModel dx="-578" dy="1322" grid="1" gridSize="10" guides="1" tooltips="1" connect="1" arrows="1" fold="1" page="1" pageScale="1" pageWidth="850" pageHeight="1100" math="0" shadow="0">
      <root>
        <mxCell id="0" />
        <mxCell id="1" parent="0" />
        <mxCell id="4BLKc-9TxuvoLMqRHIo7-1" value="act Include QSS Library" style="shape=umlFrame;whiteSpace=wrap;html=1;pointerEvents=0;width=150;height=30;" parent="1" vertex="1">
          <mxGeometry x="2880" y="70" width="1040" height="900" as="geometry" />
        </mxCell>
        <mxCell id="4BLKc-9TxuvoLMqRHIo7-2" value="User (Developer, Astronomer)" style="swimlane;startSize=20;horizontal=0;html=1;whiteSpace=wrap;" parent="1" vertex="1">
          <mxGeometry x="2900" y="110" width="1000" height="190" as="geometry" />
        </mxCell>
        <mxCell id="4BLKc-9TxuvoLMqRHIo7-3" value="" style="edgeStyle=orthogonalEdgeStyle;rounded=0;orthogonalLoop=1;jettySize=auto;html=1;" parent="4BLKc-9TxuvoLMqRHIo7-2" source="4BLKc-9TxuvoLMqRHIo7-4" target="4BLKc-9TxuvoLMqRHIo7-22" edge="1">
          <mxGeometry relative="1" as="geometry" />
        </mxCell>
        <mxCell id="4BLKc-9TxuvoLMqRHIo7-4" value="Include&lt;div&gt;QSS&amp;nbsp;&lt;span style=&quot;background-color: initial;&quot;&gt;Library&lt;/span&gt;&lt;/div&gt;" style="shape=rect;html=1;rounded=1;whiteSpace=wrap;align=center;fontSize=10;" parent="4BLKc-9TxuvoLMqRHIo7-2" vertex="1">
          <mxGeometry x="180" y="20" width="110" height="50" as="geometry" />
        </mxCell>
        <mxCell id="4BLKc-9TxuvoLMqRHIo7-5" value="" style="edgeStyle=orthogonalEdgeStyle;rounded=0;orthogonalLoop=1;jettySize=auto;html=1;" parent="4BLKc-9TxuvoLMqRHIo7-2" source="4BLKc-9TxuvoLMqRHIo7-6" target="4BLKc-9TxuvoLMqRHIo7-9" edge="1">
          <mxGeometry relative="1" as="geometry" />
        </mxCell>
        <mxCell id="4BLKc-9TxuvoLMqRHIo7-6" value="" style="shape=ellipse;html=1;fillColor=strokeColor;strokeWidth=2;verticalLabelPosition=bottom;verticalAlignment=top;perimeter=ellipsePerimeter;" parent="4BLKc-9TxuvoLMqRHIo7-2" vertex="1">
          <mxGeometry x="40" y="95" width="40" height="40" as="geometry" />
        </mxCell>
        <mxCell id="4BLKc-9TxuvoLMqRHIo7-7" value="&lt;font style=&quot;font-size: 7px;&quot;&gt;[ source&amp;nbsp;&lt;/font&gt;code ]" style="edgeStyle=orthogonalEdgeStyle;rounded=0;orthogonalLoop=1;jettySize=auto;html=1;entryX=0;entryY=0.5;entryDx=0;entryDy=0;fontSize=7;exitX=0.5;exitY=0;exitDx=0;exitDy=0;exitPerimeter=0;" parent="4BLKc-9TxuvoLMqRHIo7-2" source="4BLKc-9TxuvoLMqRHIo7-9" target="4BLKc-9TxuvoLMqRHIo7-4" edge="1">
          <mxGeometry x="-0.3825" relative="1" as="geometry">
            <mxPoint x="135" y="73" as="sourcePoint" />
            <mxPoint x="165" y="38" as="targetPoint" />
            <Array as="points">
              <mxPoint x="150" y="45" />
            </Array>
            <mxPoint as="offset" />
          </mxGeometry>
        </mxCell>
        <mxCell id="4BLKc-9TxuvoLMqRHIo7-8" value="[ IoT or&lt;div&gt;&amp;nbsp;embedded&amp;nbsp;&lt;div style=&quot;font-size: 7px;&quot;&gt;systems ]&lt;/div&gt;&lt;/div&gt;" style="edgeStyle=orthogonalEdgeStyle;rounded=0;orthogonalLoop=1;jettySize=auto;html=1;entryX=0;entryY=0.5;entryDx=0;entryDy=0;fontSize=7;exitX=1;exitY=0.5;exitDx=0;exitDy=0;exitPerimeter=0;entryPerimeter=0;" parent="4BLKc-9TxuvoLMqRHIo7-2" source="4BLKc-9TxuvoLMqRHIo7-9" target="4BLKc-9TxuvoLMqRHIo7-23" edge="1">
          <mxGeometry x="-0.1429" relative="1" as="geometry">
            <mxPoint x="80" y="175" as="sourcePoint" />
            <mxPoint x="250" y="115" as="targetPoint" />
            <mxPoint as="offset" />
            <Array as="points" />
          </mxGeometry>
        </mxCell>
        <mxCell id="4BLKc-9TxuvoLMqRHIo7-9" value="" style="strokeWidth=2;html=1;shape=mxgraph.flowchart.decision;whiteSpace=wrap;" parent="4BLKc-9TxuvoLMqRHIo7-2" vertex="1">
          <mxGeometry x="120" y="85" width="60" height="60" as="geometry" />
        </mxCell>
        <mxCell id="4BLKc-9TxuvoLMqRHIo7-10" value="" style="edgeStyle=orthogonalEdgeStyle;rounded=0;orthogonalLoop=1;jettySize=auto;html=1;" parent="4BLKc-9TxuvoLMqRHIo7-2" source="4BLKc-9TxuvoLMqRHIo7-15" target="4BLKc-9TxuvoLMqRHIo7-17" edge="1">
          <mxGeometry relative="1" as="geometry" />
        </mxCell>
        <mxCell id="4BLKc-9TxuvoLMqRHIo7-11" value="" style="edgeStyle=orthogonalEdgeStyle;rounded=0;orthogonalLoop=1;jettySize=auto;html=1;" parent="4BLKc-9TxuvoLMqRHIo7-2" source="4BLKc-9TxuvoLMqRHIo7-17" target="4BLKc-9TxuvoLMqRHIo7-19" edge="1">
          <mxGeometry relative="1" as="geometry" />
        </mxCell>
        <mxCell id="4BLKc-9TxuvoLMqRHIo7-12" value="" style="edgeStyle=orthogonalEdgeStyle;rounded=0;orthogonalLoop=1;jettySize=auto;html=1;" parent="4BLKc-9TxuvoLMqRHIo7-2" source="4BLKc-9TxuvoLMqRHIo7-19" target="4BLKc-9TxuvoLMqRHIo7-20" edge="1">
          <mxGeometry relative="1" as="geometry" />
        </mxCell>
        <mxCell id="4BLKc-9TxuvoLMqRHIo7-13" value="&amp;lt;&amp;lt;structured&amp;gt;&amp;gt; Using QAPB to build user&#39;s project automatically" style="dashed=1;rounded=1;absoluteArcSize=1;arcSize=20;html=1;verticalAlign=top;align=left;spacingTop=5;spacingLeft=10;whiteSpace=wrap;fontSize=11;" parent="4BLKc-9TxuvoLMqRHIo7-2" vertex="1">
          <mxGeometry x="400" y="75" width="480" height="100" as="geometry" />
        </mxCell>
        <mxCell id="4BLKc-9TxuvoLMqRHIo7-14" value="" style="edgeStyle=orthogonalEdgeStyle;rounded=0;orthogonalLoop=1;jettySize=auto;html=1;" parent="4BLKc-9TxuvoLMqRHIo7-2" source="4BLKc-9TxuvoLMqRHIo7-15" target="4BLKc-9TxuvoLMqRHIo7-17" edge="1">
          <mxGeometry relative="1" as="geometry" />
        </mxCell>
        <mxCell id="4BLKc-9TxuvoLMqRHIo7-15" value="" style="shape=ellipse;html=1;fillColor=strokeColor;strokeWidth=2;verticalLabelPosition=bottom;verticalAlignment=top;perimeter=ellipsePerimeter;" parent="4BLKc-9TxuvoLMqRHIo7-2" vertex="1">
          <mxGeometry x="410" y="120" width="40" height="40" as="geometry" />
        </mxCell>
        <mxCell id="4BLKc-9TxuvoLMqRHIo7-16" value="" style="edgeStyle=orthogonalEdgeStyle;rounded=0;orthogonalLoop=1;jettySize=auto;html=1;" parent="4BLKc-9TxuvoLMqRHIo7-2" source="4BLKc-9TxuvoLMqRHIo7-17" target="4BLKc-9TxuvoLMqRHIo7-19" edge="1">
          <mxGeometry relative="1" as="geometry" />
        </mxCell>
        <mxCell id="4BLKc-9TxuvoLMqRHIo7-17" value="Clone QAPB" style="shape=rect;html=1;rounded=1;whiteSpace=wrap;align=center;fontSize=10;" parent="4BLKc-9TxuvoLMqRHIo7-2" vertex="1">
          <mxGeometry x="480" y="115" width="110" height="50" as="geometry" />
        </mxCell>
        <mxCell id="4BLKc-9TxuvoLMqRHIo7-18" value="" style="edgeStyle=orthogonalEdgeStyle;rounded=0;orthogonalLoop=1;jettySize=auto;html=1;" parent="4BLKc-9TxuvoLMqRHIo7-2" source="4BLKc-9TxuvoLMqRHIo7-19" target="4BLKc-9TxuvoLMqRHIo7-20" edge="1">
          <mxGeometry relative="1" as="geometry" />
        </mxCell>
        <mxCell id="4BLKc-9TxuvoLMqRHIo7-19" value="Run QAPB on&lt;div&gt;root project directory&lt;/div&gt;" style="shape=rect;html=1;rounded=1;whiteSpace=wrap;align=center;fontSize=10;" parent="4BLKc-9TxuvoLMqRHIo7-2" vertex="1">
          <mxGeometry x="620" y="115" width="110" height="50" as="geometry" />
        </mxCell>
        <mxCell id="4BLKc-9TxuvoLMqRHIo7-20" value="Find all related files&lt;div&gt;to be compiled via user&#39;s parameters&lt;/div&gt;" style="shape=rect;html=1;rounded=1;whiteSpace=wrap;align=center;fontSize=10;" parent="4BLKc-9TxuvoLMqRHIo7-2" vertex="1">
          <mxGeometry x="760" y="115" width="110" height="50" as="geometry" />
        </mxCell>
        <mxCell id="4BLKc-9TxuvoLMqRHIo7-21" value="[ use QAPB ]" style="edgeStyle=orthogonalEdgeStyle;rounded=0;orthogonalLoop=1;jettySize=auto;html=1;fontSize=7;entryX=0.5;entryY=0;entryDx=0;entryDy=0;" parent="4BLKc-9TxuvoLMqRHIo7-2" source="4BLKc-9TxuvoLMqRHIo7-22" target="4BLKc-9TxuvoLMqRHIo7-13" edge="1">
          <mxGeometry x="-0.1429" relative="1" as="geometry">
            <mxPoint x="460" y="45" as="targetPoint" />
            <mxPoint as="offset" />
            <Array as="points">
              <mxPoint x="640" y="45" />
            </Array>
          </mxGeometry>
        </mxCell>
        <mxCell id="4BLKc-9TxuvoLMqRHIo7-22" value="" style="strokeWidth=2;html=1;shape=mxgraph.flowchart.decision;whiteSpace=wrap;" parent="4BLKc-9TxuvoLMqRHIo7-2" vertex="1">
          <mxGeometry x="350" y="15" width="60" height="60" as="geometry" />
        </mxCell>
        <mxCell id="4BLKc-9TxuvoLMqRHIo7-23" value="&lt;div&gt;:&amp;nbsp;&lt;span style=&quot;background-color: initial;&quot;&gt;Use pre-integrated&lt;/span&gt;&lt;/div&gt;&lt;div&gt;QSS Library&lt;/div&gt;&lt;div&gt;&lt;br&gt;&lt;/div&gt;" style="html=1;shape=mxgraph.sysml.callBehAct;whiteSpace=wrap;align=center;fontSize=10;" parent="4BLKc-9TxuvoLMqRHIo7-2" vertex="1">
          <mxGeometry x="250" y="87.5" width="110" height="55" as="geometry" />
        </mxCell>
        <mxCell id="4BLKc-9TxuvoLMqRHIo7-24" value="" style="html=1;shape=mxgraph.sysml.actFinal;strokeWidth=2;verticalLabelPosition=bottom;verticalAlignment=top;" parent="4BLKc-9TxuvoLMqRHIo7-2" vertex="1">
          <mxGeometry x="40" y="142.5" width="40" height="40" as="geometry" />
        </mxCell>
        <mxCell id="4BLKc-9TxuvoLMqRHIo7-25" style="edgeStyle=orthogonalEdgeStyle;rounded=0;orthogonalLoop=1;jettySize=auto;html=1;entryX=1;entryY=0.5;entryDx=0;entryDy=0;entryPerimeter=0;exitX=0.5;exitY=1;exitDx=0;exitDy=0;exitPerimeter=0;" parent="4BLKc-9TxuvoLMqRHIo7-2" source="4BLKc-9TxuvoLMqRHIo7-23" target="4BLKc-9TxuvoLMqRHIo7-24" edge="1">
          <mxGeometry relative="1" as="geometry">
            <Array as="points">
              <mxPoint x="305" y="162" />
            </Array>
          </mxGeometry>
        </mxCell>
        <mxCell id="4BLKc-9TxuvoLMqRHIo7-26" value="Compiler / Build System" style="swimlane;startSize=20;horizontal=0;html=1;whiteSpace=wrap;" parent="1" vertex="1">
          <mxGeometry x="2900" y="300" width="1000" height="210" as="geometry" />
        </mxCell>
        <mxCell id="4BLKc-9TxuvoLMqRHIo7-27" value="&amp;lt;&amp;lt;structured&amp;gt;&amp;gt; Using QAPB to build user&#39;s project automatically" style="dashed=1;rounded=1;absoluteArcSize=1;arcSize=20;html=1;verticalAlign=top;align=left;spacingTop=5;spacingLeft=10;whiteSpace=wrap;fontSize=11;" parent="4BLKc-9TxuvoLMqRHIo7-26" vertex="1">
          <mxGeometry x="430" y="15" width="560" height="180" as="geometry" />
        </mxCell>
        <mxCell id="4BLKc-9TxuvoLMqRHIo7-28" value="" style="edgeStyle=orthogonalEdgeStyle;rounded=0;orthogonalLoop=1;jettySize=auto;html=1;" parent="4BLKc-9TxuvoLMqRHIo7-26" source="4BLKc-9TxuvoLMqRHIo7-29" target="4BLKc-9TxuvoLMqRHIo7-38" edge="1">
          <mxGeometry relative="1" as="geometry" />
        </mxCell>
        <mxCell id="4BLKc-9TxuvoLMqRHIo7-29" value="Link the compiled project into the&lt;div&gt;final executable&lt;/div&gt;" style="shape=rect;html=1;rounded=1;whiteSpace=wrap;align=center;fontSize=10;" parent="4BLKc-9TxuvoLMqRHIo7-26" vertex="1">
          <mxGeometry x="730" y="125" width="110" height="50" as="geometry" />
        </mxCell>
        <mxCell id="4BLKc-9TxuvoLMqRHIo7-30" value="" style="edgeStyle=orthogonalEdgeStyle;rounded=0;orthogonalLoop=1;jettySize=auto;html=1;" parent="4BLKc-9TxuvoLMqRHIo7-26" source="4BLKc-9TxuvoLMqRHIo7-31" target="4BLKc-9TxuvoLMqRHIo7-34" edge="1">
          <mxGeometry relative="1" as="geometry" />
        </mxCell>
        <mxCell id="4BLKc-9TxuvoLMqRHIo7-31" value="Configure CMake&lt;div&gt;with selected sources&lt;/div&gt;" style="shape=rect;html=1;rounded=1;whiteSpace=wrap;align=center;fontSize=10;" parent="4BLKc-9TxuvoLMqRHIo7-26" vertex="1">
          <mxGeometry x="870" y="45" width="110" height="50" as="geometry" />
        </mxCell>
        <mxCell id="4BLKc-9TxuvoLMqRHIo7-32" value="" style="html=1;shape=mxgraph.sysml.actFinal;strokeWidth=2;verticalLabelPosition=bottom;verticalAlignment=top;" parent="4BLKc-9TxuvoLMqRHIo7-26" vertex="1">
          <mxGeometry x="625" y="50" width="40" height="40" as="geometry" />
        </mxCell>
        <mxCell id="4BLKc-9TxuvoLMqRHIo7-33" value="" style="edgeStyle=orthogonalEdgeStyle;rounded=0;orthogonalLoop=1;jettySize=auto;html=1;" parent="4BLKc-9TxuvoLMqRHIo7-26" source="4BLKc-9TxuvoLMqRHIo7-34" target="4BLKc-9TxuvoLMqRHIo7-29" edge="1">
          <mxGeometry relative="1" as="geometry" />
        </mxCell>
        <mxCell id="4BLKc-9TxuvoLMqRHIo7-34" value="Compile the project" style="shape=rect;html=1;rounded=1;whiteSpace=wrap;align=center;fontSize=10;" parent="4BLKc-9TxuvoLMqRHIo7-26" vertex="1">
          <mxGeometry x="870" y="125" width="110" height="50" as="geometry" />
        </mxCell>
        <mxCell id="4BLKc-9TxuvoLMqRHIo7-35" style="edgeStyle=orthogonalEdgeStyle;rounded=0;orthogonalLoop=1;jettySize=auto;html=1;entryX=0;entryY=0.5;entryDx=0;entryDy=0;" parent="4BLKc-9TxuvoLMqRHIo7-26" source="4BLKc-9TxuvoLMqRHIo7-36" target="4BLKc-9TxuvoLMqRHIo7-40" edge="1">
          <mxGeometry relative="1" as="geometry" />
        </mxCell>
        <mxCell id="4BLKc-9TxuvoLMqRHIo7-36" value="&amp;nbsp; &amp;nbsp; &amp;nbsp;Interrupt&lt;div&gt;&amp;nbsp; &amp;nbsp; &amp;nbsp; (Cancel request)&lt;/div&gt;" style="html=1;shape=mxgraph.sysml.accEvent;strokeWidth=2;whiteSpace=wrap;align=center;" parent="4BLKc-9TxuvoLMqRHIo7-26" vertex="1">
          <mxGeometry x="440" y="120" width="120" height="60" as="geometry" />
        </mxCell>
        <mxCell id="4BLKc-9TxuvoLMqRHIo7-37" value="" style="edgeStyle=orthogonalEdgeStyle;rounded=0;orthogonalLoop=1;jettySize=auto;html=1;" parent="4BLKc-9TxuvoLMqRHIo7-26" source="4BLKc-9TxuvoLMqRHIo7-38" target="4BLKc-9TxuvoLMqRHIo7-32" edge="1">
          <mxGeometry relative="1" as="geometry" />
        </mxCell>
        <mxCell id="4BLKc-9TxuvoLMqRHIo7-38" value="Define QAPB preprocessor&lt;div&gt;directive&amp;nbsp;&lt;span style=&quot;background-color: initial;&quot;&gt;macro&lt;/span&gt;&lt;/div&gt;" style="shape=rect;html=1;rounded=1;whiteSpace=wrap;align=center;fontSize=10;" parent="4BLKc-9TxuvoLMqRHIo7-26" vertex="1">
          <mxGeometry x="730" y="45" width="110" height="50" as="geometry" />
        </mxCell>
        <mxCell id="4BLKc-9TxuvoLMqRHIo7-39" value="" style="edgeStyle=orthogonalEdgeStyle;rounded=0;orthogonalLoop=1;jettySize=auto;html=1;" parent="4BLKc-9TxuvoLMqRHIo7-26" source="4BLKc-9TxuvoLMqRHIo7-40" target="4BLKc-9TxuvoLMqRHIo7-32" edge="1">
          <mxGeometry relative="1" as="geometry" />
        </mxCell>
        <mxCell id="4BLKc-9TxuvoLMqRHIo7-40" value="Cancel Compilation" style="shape=rect;html=1;rounded=1;whiteSpace=wrap;align=center;fontSize=10;" parent="4BLKc-9TxuvoLMqRHIo7-26" vertex="1">
          <mxGeometry x="590" y="125" width="110" height="50" as="geometry" />
        </mxCell>
        <mxCell id="4BLKc-9TxuvoLMqRHIo7-41" value="&amp;lt;&amp;lt;structured&amp;gt;&amp;gt; Using user&#39;s prefered way to compile project" style="dashed=1;rounded=1;absoluteArcSize=1;arcSize=20;html=1;verticalAlign=top;align=left;spacingTop=5;spacingLeft=10;whiteSpace=wrap;fontSize=11;" parent="4BLKc-9TxuvoLMqRHIo7-26" vertex="1">
          <mxGeometry x="70" y="20" width="350" height="170" as="geometry" />
        </mxCell>
        <mxCell id="4BLKc-9TxuvoLMqRHIo7-42" value="" style="edgeStyle=orthogonalEdgeStyle;rounded=0;orthogonalLoop=1;jettySize=auto;html=1;" parent="4BLKc-9TxuvoLMqRHIo7-26" source="4BLKc-9TxuvoLMqRHIo7-43" target="4BLKc-9TxuvoLMqRHIo7-47" edge="1">
          <mxGeometry relative="1" as="geometry" />
        </mxCell>
        <mxCell id="4BLKc-9TxuvoLMqRHIo7-43" value="Compile source code&lt;div&gt;by user prefered way&lt;/div&gt;" style="shape=rect;html=1;rounded=1;whiteSpace=wrap;align=center;fontSize=10;" parent="4BLKc-9TxuvoLMqRHIo7-26" vertex="1">
          <mxGeometry x="230" y="55" width="110" height="50" as="geometry" />
        </mxCell>
        <mxCell id="4BLKc-9TxuvoLMqRHIo7-44" value="&amp;nbsp; &amp;nbsp; &amp;nbsp;Interrupt&lt;div&gt;&amp;nbsp; &amp;nbsp; &amp;nbsp; (Cancel request)&lt;/div&gt;" style="html=1;shape=mxgraph.sysml.accEvent;strokeWidth=2;whiteSpace=wrap;align=center;" parent="4BLKc-9TxuvoLMqRHIo7-26" vertex="1">
          <mxGeometry x="80" y="50" width="120" height="60" as="geometry" />
        </mxCell>
        <mxCell id="4BLKc-9TxuvoLMqRHIo7-45" value="" style="edgeStyle=orthogonalEdgeStyle;rounded=0;orthogonalLoop=1;jettySize=auto;html=1;" parent="4BLKc-9TxuvoLMqRHIo7-26" source="4BLKc-9TxuvoLMqRHIo7-46" target="4BLKc-9TxuvoLMqRHIo7-43" edge="1">
          <mxGeometry relative="1" as="geometry" />
        </mxCell>
        <mxCell id="4BLKc-9TxuvoLMqRHIo7-46" value="" style="shape=ellipse;html=1;fillColor=strokeColor;strokeWidth=2;verticalLabelPosition=bottom;verticalAlignment=top;perimeter=ellipsePerimeter;" parent="4BLKc-9TxuvoLMqRHIo7-26" vertex="1">
          <mxGeometry x="370" y="60" width="40" height="40" as="geometry" />
        </mxCell>
        <mxCell id="4BLKc-9TxuvoLMqRHIo7-47" value="" style="html=1;shape=mxgraph.sysml.actFinal;strokeWidth=2;verticalLabelPosition=bottom;verticalAlignment=top;" parent="4BLKc-9TxuvoLMqRHIo7-26" vertex="1">
          <mxGeometry x="265" y="135" width="40" height="40" as="geometry" />
        </mxCell>
        <mxCell id="4BLKc-9TxuvoLMqRHIo7-48" value="" style="edgeStyle=orthogonalEdgeStyle;rounded=0;orthogonalLoop=1;jettySize=auto;html=1;" parent="4BLKc-9TxuvoLMqRHIo7-26" source="4BLKc-9TxuvoLMqRHIo7-49" target="4BLKc-9TxuvoLMqRHIo7-47" edge="1">
          <mxGeometry relative="1" as="geometry" />
        </mxCell>
        <mxCell id="4BLKc-9TxuvoLMqRHIo7-49" value="Handle interrupt via operating system" style="shape=rect;html=1;rounded=1;whiteSpace=wrap;align=center;fontSize=10;" parent="4BLKc-9TxuvoLMqRHIo7-26" vertex="1">
          <mxGeometry x="130" y="130" width="110" height="50" as="geometry" />
        </mxCell>
        <mxCell id="4BLKc-9TxuvoLMqRHIo7-50" style="edgeStyle=orthogonalEdgeStyle;rounded=0;orthogonalLoop=1;jettySize=auto;html=1;entryX=0;entryY=0.5;entryDx=0;entryDy=0;" parent="4BLKc-9TxuvoLMqRHIo7-26" source="4BLKc-9TxuvoLMqRHIo7-44" target="4BLKc-9TxuvoLMqRHIo7-49" edge="1">
          <mxGeometry relative="1" as="geometry">
            <Array as="points">
              <mxPoint x="140" y="120" />
              <mxPoint x="110" y="120" />
              <mxPoint x="110" y="155" />
            </Array>
          </mxGeometry>
        </mxCell>
        <mxCell id="4BLKc-9TxuvoLMqRHIo7-51" value="" style="edgeStyle=orthogonalEdgeStyle;rounded=0;orthogonalLoop=1;jettySize=auto;html=1;entryX=0.5;entryY=0;entryDx=0;entryDy=0;" parent="1" source="4BLKc-9TxuvoLMqRHIo7-20" target="4BLKc-9TxuvoLMqRHIo7-31" edge="1">
          <mxGeometry relative="1" as="geometry">
            <Array as="points">
              <mxPoint x="3825" y="250" />
            </Array>
          </mxGeometry>
        </mxCell>
        <mxCell id="4BLKc-9TxuvoLMqRHIo7-52" style="edgeStyle=orthogonalEdgeStyle;rounded=0;orthogonalLoop=1;jettySize=auto;html=1;entryX=0.888;entryY=-0.011;entryDx=0;entryDy=0;entryPerimeter=0;" parent="1" source="4BLKc-9TxuvoLMqRHIo7-22" target="4BLKc-9TxuvoLMqRHIo7-41" edge="1">
          <mxGeometry relative="1" as="geometry" />
        </mxCell>
        <mxCell id="4BLKc-9TxuvoLMqRHIo7-53" value="QSS Library (Runtime)" style="swimlane;startSize=20;horizontal=0;html=1;whiteSpace=wrap;" parent="1" vertex="1">
          <mxGeometry x="2900" y="510" width="1000" height="440" as="geometry">
            <mxRectangle x="2900" y="510" width="40" height="150" as="alternateBounds" />
          </mxGeometry>
        </mxCell>
        <mxCell id="4BLKc-9TxuvoLMqRHIo7-54" value="" style="edgeStyle=orthogonalEdgeStyle;rounded=0;orthogonalLoop=1;jettySize=auto;html=1;" parent="4BLKc-9TxuvoLMqRHIo7-53" source="4BLKc-9TxuvoLMqRHIo7-55" target="4BLKc-9TxuvoLMqRHIo7-78" edge="1">
          <mxGeometry relative="1" as="geometry" />
        </mxCell>
        <mxCell id="4BLKc-9TxuvoLMqRHIo7-55" value="" style="strokeWidth=2;html=1;shape=mxgraph.flowchart.decision;whiteSpace=wrap;" parent="4BLKc-9TxuvoLMqRHIo7-53" vertex="1">
          <mxGeometry x="215" y="20" width="60" height="60" as="geometry" />
        </mxCell>
        <mxCell id="4BLKc-9TxuvoLMqRHIo7-56" value="" style="edgeStyle=orthogonalEdgeStyle;rounded=0;orthogonalLoop=1;jettySize=auto;html=1;" parent="4BLKc-9TxuvoLMqRHIo7-53" source="4BLKc-9TxuvoLMqRHIo7-57" target="4BLKc-9TxuvoLMqRHIo7-76" edge="1">
          <mxGeometry relative="1" as="geometry">
            <Array as="points">
              <mxPoint x="540" y="95" />
              <mxPoint x="540" y="95" />
            </Array>
          </mxGeometry>
        </mxCell>
        <mxCell id="4BLKc-9TxuvoLMqRHIo7-57" value="Create object from&lt;div style=&quot;font-size: 10px;&quot;&gt;Celestial Objects&lt;/div&gt;" style="shape=rect;html=1;rounded=1;whiteSpace=wrap;align=center;fontSize=10;" parent="4BLKc-9TxuvoLMqRHIo7-53" vertex="1">
          <mxGeometry x="390" y="70" width="110" height="50" as="geometry" />
        </mxCell>
        <mxCell id="4BLKc-9TxuvoLMqRHIo7-58" value="" style="edgeStyle=orthogonalEdgeStyle;rounded=0;orthogonalLoop=1;jettySize=auto;html=1;" parent="4BLKc-9TxuvoLMqRHIo7-53" source="4BLKc-9TxuvoLMqRHIo7-59" target="4BLKc-9TxuvoLMqRHIo7-76" edge="1">
          <mxGeometry relative="1" as="geometry">
            <Array as="points">
              <mxPoint x="530" y="155" />
              <mxPoint x="530" y="155" />
            </Array>
          </mxGeometry>
        </mxCell>
        <mxCell id="4BLKc-9TxuvoLMqRHIo7-59" value="Create object from&lt;div style=&quot;font-size: 10px;&quot;&gt;Spherical Trigonometry&lt;/div&gt;" style="shape=rect;html=1;rounded=1;whiteSpace=wrap;align=center;fontSize=10;" parent="4BLKc-9TxuvoLMqRHIo7-53" vertex="1">
          <mxGeometry x="390" y="130" width="110" height="50" as="geometry" />
        </mxCell>
        <mxCell id="4BLKc-9TxuvoLMqRHIo7-60" value="" style="edgeStyle=orthogonalEdgeStyle;rounded=0;orthogonalLoop=1;jettySize=auto;html=1;" parent="4BLKc-9TxuvoLMqRHIo7-53" source="4BLKc-9TxuvoLMqRHIo7-61" target="4BLKc-9TxuvoLMqRHIo7-76" edge="1">
          <mxGeometry relative="1" as="geometry">
            <Array as="points">
              <mxPoint x="540" y="215" />
              <mxPoint x="540" y="215" />
            </Array>
          </mxGeometry>
        </mxCell>
        <mxCell id="4BLKc-9TxuvoLMqRHIo7-61" value="Create object from&lt;div style=&quot;font-size: 10px;&quot;&gt;Celestial Mechanics&lt;/div&gt;" style="shape=rect;html=1;rounded=1;whiteSpace=wrap;align=center;fontSize=10;" parent="4BLKc-9TxuvoLMqRHIo7-53" vertex="1">
          <mxGeometry x="390" y="190" width="110" height="50" as="geometry" />
        </mxCell>
        <mxCell id="4BLKc-9TxuvoLMqRHIo7-62" value="" style="edgeStyle=orthogonalEdgeStyle;rounded=0;orthogonalLoop=1;jettySize=auto;html=1;" parent="4BLKc-9TxuvoLMqRHIo7-53" source="4BLKc-9TxuvoLMqRHIo7-63" target="4BLKc-9TxuvoLMqRHIo7-76" edge="1">
          <mxGeometry relative="1" as="geometry">
            <Array as="points">
              <mxPoint x="530" y="275" />
              <mxPoint x="530" y="275" />
            </Array>
          </mxGeometry>
        </mxCell>
        <mxCell id="4BLKc-9TxuvoLMqRHIo7-63" value="Create object from&lt;div style=&quot;font-size: 10px;&quot;&gt;Astrophysics&lt;/div&gt;" style="shape=rect;html=1;rounded=1;whiteSpace=wrap;align=center;fontSize=10;" parent="4BLKc-9TxuvoLMqRHIo7-53" vertex="1">
          <mxGeometry x="390" y="250" width="110" height="50" as="geometry" />
        </mxCell>
        <mxCell id="4BLKc-9TxuvoLMqRHIo7-64" value="" style="edgeStyle=orthogonalEdgeStyle;rounded=0;orthogonalLoop=1;jettySize=auto;html=1;" parent="4BLKc-9TxuvoLMqRHIo7-53" source="4BLKc-9TxuvoLMqRHIo7-65" target="4BLKc-9TxuvoLMqRHIo7-76" edge="1">
          <mxGeometry relative="1" as="geometry">
            <Array as="points">
              <mxPoint x="520" y="335" />
              <mxPoint x="520" y="335" />
            </Array>
          </mxGeometry>
        </mxCell>
        <mxCell id="4BLKc-9TxuvoLMqRHIo7-65" value="Create object from&lt;div style=&quot;font-size: 10px;&quot;&gt;Simulation&lt;/div&gt;" style="shape=rect;html=1;rounded=1;whiteSpace=wrap;align=center;fontSize=10;" parent="4BLKc-9TxuvoLMqRHIo7-53" vertex="1">
          <mxGeometry x="390" y="310" width="110" height="50" as="geometry" />
        </mxCell>
        <mxCell id="4BLKc-9TxuvoLMqRHIo7-66" value="" style="edgeStyle=orthogonalEdgeStyle;rounded=0;orthogonalLoop=1;jettySize=auto;html=1;" parent="4BLKc-9TxuvoLMqRHIo7-53" source="4BLKc-9TxuvoLMqRHIo7-67" target="4BLKc-9TxuvoLMqRHIo7-76" edge="1">
          <mxGeometry relative="1" as="geometry">
            <Array as="points">
              <mxPoint x="530" y="395" />
              <mxPoint x="530" y="395" />
            </Array>
          </mxGeometry>
        </mxCell>
        <mxCell id="4BLKc-9TxuvoLMqRHIo7-67" value="Create object from&lt;div style=&quot;font-size: 10px;&quot;&gt;Data Analyzing&lt;/div&gt;" style="shape=rect;html=1;rounded=1;whiteSpace=wrap;align=center;fontSize=10;" parent="4BLKc-9TxuvoLMqRHIo7-53" vertex="1">
          <mxGeometry x="390" y="370" width="110" height="50" as="geometry" />
        </mxCell>
        <mxCell id="4BLKc-9TxuvoLMqRHIo7-68" value="" style="edgeStyle=orthogonalEdgeStyle;rounded=0;orthogonalLoop=1;jettySize=auto;html=1;" parent="4BLKc-9TxuvoLMqRHIo7-53" source="4BLKc-9TxuvoLMqRHIo7-74" target="4BLKc-9TxuvoLMqRHIo7-63" edge="1">
          <mxGeometry relative="1" as="geometry">
            <Array as="points">
              <mxPoint x="360" y="275" />
              <mxPoint x="360" y="275" />
            </Array>
          </mxGeometry>
        </mxCell>
        <mxCell id="4BLKc-9TxuvoLMqRHIo7-69" value="" style="edgeStyle=orthogonalEdgeStyle;rounded=0;orthogonalLoop=1;jettySize=auto;html=1;entryX=0;entryY=0.5;entryDx=0;entryDy=0;" parent="4BLKc-9TxuvoLMqRHIo7-53" source="4BLKc-9TxuvoLMqRHIo7-74" target="4BLKc-9TxuvoLMqRHIo7-65" edge="1">
          <mxGeometry relative="1" as="geometry">
            <Array as="points">
              <mxPoint x="368" y="335" />
              <mxPoint x="368" y="335" />
            </Array>
          </mxGeometry>
        </mxCell>
        <mxCell id="4BLKc-9TxuvoLMqRHIo7-70" value="" style="edgeStyle=orthogonalEdgeStyle;rounded=0;orthogonalLoop=1;jettySize=auto;html=1;entryX=0;entryY=0.5;entryDx=0;entryDy=0;" parent="4BLKc-9TxuvoLMqRHIo7-53" source="4BLKc-9TxuvoLMqRHIo7-74" target="4BLKc-9TxuvoLMqRHIo7-67" edge="1">
          <mxGeometry relative="1" as="geometry">
            <Array as="points">
              <mxPoint x="380" y="395" />
              <mxPoint x="380" y="395" />
            </Array>
          </mxGeometry>
        </mxCell>
        <mxCell id="4BLKc-9TxuvoLMqRHIo7-71" value="" style="edgeStyle=orthogonalEdgeStyle;rounded=0;orthogonalLoop=1;jettySize=auto;html=1;entryX=0;entryY=0.5;entryDx=0;entryDy=0;" parent="4BLKc-9TxuvoLMqRHIo7-53" source="4BLKc-9TxuvoLMqRHIo7-74" target="4BLKc-9TxuvoLMqRHIo7-61" edge="1">
          <mxGeometry relative="1" as="geometry">
            <Array as="points">
              <mxPoint x="350" y="215" />
              <mxPoint x="350" y="215" />
            </Array>
          </mxGeometry>
        </mxCell>
        <mxCell id="4BLKc-9TxuvoLMqRHIo7-72" value="" style="edgeStyle=orthogonalEdgeStyle;rounded=0;orthogonalLoop=1;jettySize=auto;html=1;entryX=0;entryY=0.5;entryDx=0;entryDy=0;" parent="4BLKc-9TxuvoLMqRHIo7-53" source="4BLKc-9TxuvoLMqRHIo7-74" target="4BLKc-9TxuvoLMqRHIo7-59" edge="1">
          <mxGeometry relative="1" as="geometry">
            <Array as="points">
              <mxPoint x="350" y="155" />
              <mxPoint x="350" y="155" />
            </Array>
          </mxGeometry>
        </mxCell>
        <mxCell id="4BLKc-9TxuvoLMqRHIo7-73" value="" style="edgeStyle=orthogonalEdgeStyle;rounded=0;orthogonalLoop=1;jettySize=auto;html=1;entryX=0;entryY=0.5;entryDx=0;entryDy=0;" parent="4BLKc-9TxuvoLMqRHIo7-53" source="4BLKc-9TxuvoLMqRHIo7-74" target="4BLKc-9TxuvoLMqRHIo7-57" edge="1">
          <mxGeometry relative="1" as="geometry">
            <Array as="points">
              <mxPoint x="350" y="95" />
              <mxPoint x="350" y="95" />
            </Array>
          </mxGeometry>
        </mxCell>
        <mxCell id="4BLKc-9TxuvoLMqRHIo7-74" value="" style="html=1;points=[];perimeter=orthogonalPerimeter;fillColor=strokeColor;" parent="4BLKc-9TxuvoLMqRHIo7-53" vertex="1">
          <mxGeometry x="340" y="85" width="5" height="320" as="geometry" />
        </mxCell>
        <mxCell id="4BLKc-9TxuvoLMqRHIo7-75" value="" style="edgeStyle=orthogonalEdgeStyle;rounded=0;orthogonalLoop=1;jettySize=auto;html=1;" parent="4BLKc-9TxuvoLMqRHIo7-53" source="4BLKc-9TxuvoLMqRHIo7-76" target="4BLKc-9TxuvoLMqRHIo7-87" edge="1">
          <mxGeometry relative="1" as="geometry" />
        </mxCell>
        <mxCell id="4BLKc-9TxuvoLMqRHIo7-76" value="" style="html=1;points=[];perimeter=orthogonalPerimeter;fillColor=strokeColor;" parent="4BLKc-9TxuvoLMqRHIo7-53" vertex="1">
          <mxGeometry x="540" y="85" width="5" height="320" as="geometry" />
        </mxCell>
        <mxCell id="4BLKc-9TxuvoLMqRHIo7-77" value="" style="edgeStyle=orthogonalEdgeStyle;rounded=0;orthogonalLoop=1;jettySize=auto;html=1;" parent="4BLKc-9TxuvoLMqRHIo7-53" source="4BLKc-9TxuvoLMqRHIo7-78" target="4BLKc-9TxuvoLMqRHIo7-74" edge="1">
          <mxGeometry relative="1" as="geometry" />
        </mxCell>
        <mxCell id="4BLKc-9TxuvoLMqRHIo7-78" value="Create main QSSL class&amp;nbsp;&lt;span style=&quot;background-color: initial;&quot;&gt;object&lt;/span&gt;" style="shape=rect;html=1;rounded=1;whiteSpace=wrap;align=center;fontSize=10;" parent="4BLKc-9TxuvoLMqRHIo7-53" vertex="1">
          <mxGeometry x="190" y="120" width="110" height="50" as="geometry" />
        </mxCell>
        <mxCell id="4BLKc-9TxuvoLMqRHIo7-79" value="" style="edgeStyle=orthogonalEdgeStyle;rounded=0;orthogonalLoop=1;jettySize=auto;html=1;entryX=-0.008;entryY=0.578;entryDx=0;entryDy=0;entryPerimeter=0;endArrow=none;endFill=0;dashed=1;" parent="4BLKc-9TxuvoLMqRHIo7-53" source="4BLKc-9TxuvoLMqRHIo7-80" target="4BLKc-9TxuvoLMqRHIo7-74" edge="1">
          <mxGeometry relative="1" as="geometry" />
        </mxCell>
        <mxCell id="4BLKc-9TxuvoLMqRHIo7-80" value="&lt;div style=&quot;font-size: 10px; text-align: left;&quot;&gt;&lt;font color=&quot;#000000&quot;&gt;&lt;span style=&quot;background-color: initial;&quot;&gt;&amp;nbsp;by including QSSL, The m&lt;/span&gt;&lt;span style=&quot;background-color: initial;&quot;&gt;ain&lt;/span&gt;&lt;/font&gt;&lt;/div&gt;&lt;div style=&quot;font-size: 10px; text-align: left;&quot;&gt;&lt;span style=&quot;background-color: initial;&quot;&gt;&lt;font color=&quot;#000000&quot;&gt;&amp;nbsp;class creates objects from each&lt;/font&gt;&lt;/span&gt;&lt;/div&gt;&lt;div style=&quot;font-size: 10px; text-align: left;&quot;&gt;&lt;span style=&quot;background-color: initial;&quot;&gt;&lt;font color=&quot;#000000&quot;&gt;&amp;nbsp;submodules, So i used fork&amp;nbsp; &amp;nbsp;because all submodule objects&lt;/font&gt;&lt;/span&gt;&lt;/div&gt;&lt;div style=&quot;font-size: 10px; text-align: left;&quot;&gt;&lt;font color=&quot;#000000&quot;&gt;&lt;span style=&quot;background-color: initial;&quot;&gt;&amp;nbsp;are&amp;nbsp;&lt;/span&gt;&lt;span style=&quot;background-color: initial;&quot;&gt;going to be created in&amp;nbsp;&lt;/span&gt;&lt;span style=&quot;background-color: initial;&quot;&gt;parallel&lt;/span&gt;&lt;/font&gt;&lt;/div&gt;" style="shape=note;size=20;whiteSpace=wrap;html=1;" parent="4BLKc-9TxuvoLMqRHIo7-53" vertex="1">
          <mxGeometry x="140" y="230" width="160" height="80" as="geometry" />
        </mxCell>
        <mxCell id="4BLKc-9TxuvoLMqRHIo7-81" value="" style="edgeStyle=orthogonalEdgeStyle;rounded=0;orthogonalLoop=1;jettySize=auto;html=1;" parent="4BLKc-9TxuvoLMqRHIo7-53" source="4BLKc-9TxuvoLMqRHIo7-82" target="4BLKc-9TxuvoLMqRHIo7-88" edge="1">
          <mxGeometry relative="1" as="geometry" />
        </mxCell>
        <mxCell id="4BLKc-9TxuvoLMqRHIo7-82" value=": Call function&lt;div&gt;(Related)&lt;/div&gt;" style="html=1;shape=mxgraph.sysml.callBehAct;whiteSpace=wrap;align=center;fontSize=10;" parent="4BLKc-9TxuvoLMqRHIo7-53" vertex="1">
          <mxGeometry x="870" y="220" width="110" height="50" as="geometry" />
        </mxCell>
        <mxCell id="4BLKc-9TxuvoLMqRHIo7-83" value="&lt;span style=&quot;font-size: 7px;&quot;&gt;&amp;nbsp;[ initialized ]&amp;nbsp;&lt;/span&gt;" style="edgeStyle=orthogonalEdgeStyle;rounded=0;orthogonalLoop=1;jettySize=auto;html=1;" parent="4BLKc-9TxuvoLMqRHIo7-53" source="4BLKc-9TxuvoLMqRHIo7-85" target="4BLKc-9TxuvoLMqRHIo7-82" edge="1">
          <mxGeometry x="-0.0934" relative="1" as="geometry">
            <mxPoint as="offset" />
          </mxGeometry>
        </mxCell>
        <mxCell id="4BLKc-9TxuvoLMqRHIo7-84" value="" style="edgeStyle=orthogonalEdgeStyle;rounded=0;orthogonalLoop=1;jettySize=auto;html=1;" parent="4BLKc-9TxuvoLMqRHIo7-53" source="4BLKc-9TxuvoLMqRHIo7-85" target="4BLKc-9TxuvoLMqRHIo7-90" edge="1">
          <mxGeometry relative="1" as="geometry" />
        </mxCell>
        <mxCell id="4BLKc-9TxuvoLMqRHIo7-85" value="" style="strokeWidth=2;html=1;shape=mxgraph.flowchart.decision;whiteSpace=wrap;" parent="4BLKc-9TxuvoLMqRHIo7-53" vertex="1">
          <mxGeometry x="730" y="215" width="60" height="60" as="geometry" />
        </mxCell>
        <mxCell id="4BLKc-9TxuvoLMqRHIo7-86" value="" style="edgeStyle=orthogonalEdgeStyle;rounded=0;orthogonalLoop=1;jettySize=auto;html=1;" parent="4BLKc-9TxuvoLMqRHIo7-53" source="4BLKc-9TxuvoLMqRHIo7-87" target="4BLKc-9TxuvoLMqRHIo7-85" edge="1">
          <mxGeometry relative="1" as="geometry" />
        </mxCell>
        <mxCell id="4BLKc-9TxuvoLMqRHIo7-87" value="Initialize objects" style="shape=rect;html=1;rounded=1;whiteSpace=wrap;align=center;fontSize=10;" parent="4BLKc-9TxuvoLMqRHIo7-53" vertex="1">
          <mxGeometry x="580" y="220" width="110" height="50" as="geometry" />
        </mxCell>
        <mxCell id="4BLKc-9TxuvoLMqRHIo7-88" value="" style="html=1;shape=mxgraph.sysml.actFinal;strokeWidth=2;verticalLabelPosition=bottom;verticalAlignment=top;" parent="4BLKc-9TxuvoLMqRHIo7-53" vertex="1">
          <mxGeometry x="905" y="320" width="40" height="40" as="geometry" />
        </mxCell>
        <mxCell id="4BLKc-9TxuvoLMqRHIo7-89" value="" style="edgeStyle=orthogonalEdgeStyle;rounded=0;orthogonalLoop=1;jettySize=auto;html=1;" parent="4BLKc-9TxuvoLMqRHIo7-53" source="4BLKc-9TxuvoLMqRHIo7-90" target="4BLKc-9TxuvoLMqRHIo7-88" edge="1">
          <mxGeometry relative="1" as="geometry" />
        </mxCell>
        <mxCell id="4BLKc-9TxuvoLMqRHIo7-90" value="Raise runtime error" style="shape=rect;html=1;rounded=1;whiteSpace=wrap;align=center;fontSize=10;" parent="4BLKc-9TxuvoLMqRHIo7-53" vertex="1">
          <mxGeometry x="705" y="315" width="110" height="50" as="geometry" />
        </mxCell>
        <mxCell id="4BLKc-9TxuvoLMqRHIo7-91" style="edgeStyle=orthogonalEdgeStyle;rounded=0;orthogonalLoop=1;jettySize=auto;html=1;entryX=0.5;entryY=0;entryDx=0;entryDy=0;entryPerimeter=0;exitX=0.5;exitY=1;exitDx=0;exitDy=0;" parent="1" source="4BLKc-9TxuvoLMqRHIo7-41" target="4BLKc-9TxuvoLMqRHIo7-55" edge="1">
          <mxGeometry relative="1" as="geometry" />
        </mxCell>
        <mxCell id="4BLKc-9TxuvoLMqRHIo7-92" style="edgeStyle=orthogonalEdgeStyle;rounded=0;orthogonalLoop=1;jettySize=auto;html=1;entryX=1;entryY=0.5;entryDx=0;entryDy=0;entryPerimeter=0;exitX=0.5;exitY=1;exitDx=0;exitDy=0;" parent="1" source="4BLKc-9TxuvoLMqRHIo7-27" target="4BLKc-9TxuvoLMqRHIo7-55" edge="1">
          <mxGeometry relative="1" as="geometry" />
        </mxCell>
      </root>
    </mxGraphModel>
  </diagram>
</mxfile>
